<svg xmlns="http://www.w3.org/2000/svg" viewBox="0 0 400 300"><circle cx="199" cy="150.5" r="70.8" fill="#6a6f73"/><linearGradient id="a" gradientUnits="userSpaceOnUse" x1="-129.148" y1="301.067" x2="-108.841" y2="257.545" gradientTransform="matrix(1 0 0 -1 330.7 457.18)"><stop offset="0" stop-color="#b5bbba"/><stop offset=".18" stop-color="#a6abae"/><stop offset=".34" stop-color="#d2d6d9"/><stop offset=".54" stop-color="#e5e7e9"/><stop offset=".67" stop-color="#f1f1f2"/><stop offset=".8" stop-color="#f5f5f6"/><stop offset=".93" stop-color="#f7f6f6"/><stop offset="1" stop-color="#f8f8f9"/></linearGradient><path d="M201.3 89.5c30.7.2 58.3 26.8 58.3 60.5s-27.4 61-61 61-60.4-27.1-60.4-60.8 29.5-60.6 59.8-61l3.3.3zm-28.9 16.8c-5.9 3.6-11 8.3-15.1 14l23.5 55.6 10.5-23.4h15.3l10.5 23.4 23.5-55.6c-4.1-5.6-9.2-10.4-15.1-14l-19 42.6h-15.3l-18.8-42.6zm41.4-5.3c-9.6-2.9-19.9-2.9-29.5 0l14.8 33 14.7-33zm-64.5 34.1c-7.4 24.5 4.4 50.8 27.6 61.5l-27.6-61.5zm34.3 64.1c9.7 2.9 20.1 2.9 29.8 0l-14.9-32.4-14.9 32.4zm36.5-2.6c23.3-10.8 35-37 27.6-61.5l-27.6 61.5z" fill-rule="evenodd" clip-rule="evenodd" fill="url(#a)"/><path d="M199 89.4c33.6 0 61 27.4 61 61s-27.4 61-61 61-61-27.4-61-61 27.4-60.9 61-61zm-26.6 17.1c-5.9 3.6-11 8.3-15.1 14l23.5 55.6 10.5-23.4h15.3l10.5 23.4 23.5-55.6c-4.1-5.6-9.2-10.4-15.1-14l-19 42.6h-15.3l-18.8-42.6zm41.4-5.3c-9.6-2.9-19.9-2.9-29.5 0l14.8 33 14.7-33zm-64 34.4c-7.4 24.5 4.4 50.8 27.6 61.5l-27.6-61.5zm34.3 64.1c9.7 2.9 20.1 2.9 29.8 0L199 167.3l-14.9 32.4zm36.5-2.6c23.3-10.8 35-37 27.6-61.5l-27.6 61.5z" fill-rule="evenodd" clip-rule="evenodd" fill="#fff"/></svg>