<svg data-name="Capa 1" xmlns="http://www.w3.org/2000/svg" viewBox="0 0 400 300"><path d="M199.93 89.79a31.2 31.2 0 0123-12.71s2 11.89-7.56 23.37c-10.19 12.25-21.78 10.26-21.78 10.26s-2.2-9.71 6.34-20.92zM194.78 119c4.95 0 14.12-6.79 26.05-6.79 20.56 0 28.62 14.62 28.62 14.62a31.78 31.78 0 00-15.81 27.7c0 22.14 19.7 29.76 19.7 29.76s-13.77 38.76-32.34 38.76c-8.54 0-15.18-5.76-24.18-5.76-9.18 0-18.28 6-24.2 6-17 0-38.43-36.77-38.43-66.32 0-29.07 18.17-44.32 35.2-44.32 11.06-.02 19.61 6.35 25.39 6.35z" fill="#6e6e6e" fill-rule="evenodd"/></svg>