<svg id="Capa_1" data-name="Capa 1" xmlns="http://www.w3.org/2000/svg" viewBox="0 0 400 300"><defs><style>.cls-1{fill:#6e6e6e}</style></defs><g id="layer1"><g id="g3235"><path id="path3015" class="cls-1" d="M307.38 189.38q6.35.62 12.67 1.31l9.31-23 8.85 25.11q6.81.83 13.6 1.79l-15.51-44 15.52-38.33h-13.13l-.13.19-8.39 20.7-7.38-20.89h-13l13.4 38z"/><path id="path3019" class="cls-1" d="M297.56 188.46v-76.24h-13v75.17q6.51.5 13 1.07"/><path id="path3023" class="cls-1" d="M200.11 184.22c3.51 0 7 0 10.5.05v-28h15.59v-11.93h-15.59v-20.15h17.95v-12h-31v72h2.53"/><path id="path3035" class="cls-1" d="M159.84 185q6.47-.24 13-.4v-60.41h12.12v-12h-37.25v12h12.13V185z"/><path id="path3039" class="cls-1" d="M60.63 193v-45.43L76 191.15q7.09-.83 14.2-1.5v-77.41H77.74v47.05l-16.58-47h-13v82.38h.08L60.63 193"/><path id="path3051" class="cls-1" d="M135.2 124.19v-12h-30.93v76.12q15.42-1.34 31-2.24v-12q-9 .53-17.92 1.19v-19.1h15.59v-11.83H117.3v-20.14z"/><path id="path3055" class="cls-1" d="M254.27 173.6v-61.36h-13V185q15.54.59 31 1.57v-11.96q-9-.57-18-1"/></g></g></svg>