<svg id="Capa_1" data-name="Capa 1" xmlns="http://www.w3.org/2000/svg" viewBox="0 0 400 300"><defs><style>.cls-1{fill:#6e6e6e}</style></defs><path class="cls-1" d="M216 128.38a43.29 43.29 0 00-38.25 23 43.33 43.33 0 00-58.6-17.92 44.45 44.45 0 00-5.62 3.57v-36.47a8.66 8.66 0 00-17.32 0v71.83a43.29 43.29 0 0081.5 19.61A43.34 43.34 0 10216 128.36zm-76.5 69.27a26 26 0 1126-26 26 26 0 01-26.04 26zm76.5 0a26 26 0 1126-26 26 26 0 01-26 26z"/><path class="cls-1" d="M317.51 201.35l-22.18-29.64 22.18-29.65a8.66 8.66 0 10-13.85-10.41l-19.13 25.61-19.14-25.61a8.68 8.68 0 00-13.88 10.41l22.17 29.64-22.17 29.65a8.66 8.66 0 1013.85 10.4l19.14-25.6 19.14 25.6a8.66 8.66 0 0013.84-10.4z"/></svg>