<svg id="Capa_1" data-name="Capa 1" xmlns="http://www.w3.org/2000/svg" viewBox="0 0 400 300"><defs><style>.cls-1{fill:#6e6e6e;}</style></defs><path class="cls-1" d="M216,128.38a43.29,43.29,0,0,0-38.25,23,43.33,43.33,0,0,0-58.6-17.92,44.45,44.45,0,0,0-5.62,3.57V100.56h0a8.66,8.66,0,0,0-17.32,0h0v71.83h0A43.29,43.29,0,0,0,177.71,192,43.34,43.34,0,1,0,216,128.36Zm-76.5,69.27a26,26,0,1,1,26-26h0A26,26,0,0,1,139.46,197.65Zm76.5,0a26,26,0,1,1,26-26h0a26,26,0,0,1-26,26Z"/><path class="cls-1" d="M317.51,201.35l-22.18-29.64,22.18-29.65h0a8.66,8.66,0,1,0-13.85-10.41h0l-19.13,25.61-19.14-25.61h0a8.68,8.68,0,0,0-13.88,10.41h0l22.17,29.64-22.17,29.65h0a8.66,8.66,0,1,0,13.85,10.4h0l19.14-25.6,19.14,25.6h0a8.66,8.66,0,0,0,13.84-10.4Z"/></svg>