<?xml version="1.0" encoding="utf-8"?>
<!-- Generator: Adobe Illustrator 25.4.1, SVG Export Plug-In . SVG Version: 6.00 Build 0)  -->
<svg version="1.1" id="Capa_1" xmlns="http://www.w3.org/2000/svg" xmlns:xlink="http://www.w3.org/1999/xlink" x="0px" y="0px"
	 viewBox="0 0 400 300" style="enable-background:new 0 0 400 300;" xml:space="preserve">
<style type="text/css">
	.st0{fill:#6A6F73;}
	.st1{fill-rule:evenodd;clip-rule:evenodd;fill:url(#SVGID_1_);}
	.st2{fill-rule:evenodd;clip-rule:evenodd;fill:#FFFFFF;}
</style>
<circle class="st0" cx="199" cy="150.5" r="70.8"/>
<linearGradient id="SVGID_1_" gradientUnits="userSpaceOnUse" x1="-129.1481" y1="301.0665" x2="-108.8406" y2="257.5453" gradientTransform="matrix(1 0 0 -1 330.7 457.18)">
	<stop  offset="0" style="stop-color:#B5BBBA"/>
	<stop  offset="0.18" style="stop-color:#A6ABAE"/>
	<stop  offset="0.34" style="stop-color:#D2D6D9"/>
	<stop  offset="0.54" style="stop-color:#E5E7E9"/>
	<stop  offset="0.67" style="stop-color:#F1F1F2"/>
	<stop  offset="0.8" style="stop-color:#F5F5F6"/>
	<stop  offset="0.93" style="stop-color:#F7F6F6"/>
	<stop  offset="1" style="stop-color:#F8F8F9"/>
</linearGradient>
<path class="st1" d="M201.3,89.5c30.7,0.2,58.3,26.8,58.3,60.5s-27.4,61-61,61s-60.4-27.1-60.4-60.8s29.5-60.6,59.8-61L201.3,89.5z
	 M172.4,106.3c-5.9,3.6-11,8.3-15.1,14l23.5,55.6l10.5-23.4h15.3l10.5,23.4l23.5-55.6c-4.1-5.6-9.2-10.4-15.1-14l-19,42.6h-15.3
	L172.4,106.3L172.4,106.3z M213.8,101c-9.6-2.9-19.9-2.9-29.5,0l14.8,33L213.8,101L213.8,101z M149.3,135.1
	c-7.4,24.5,4.4,50.8,27.6,61.5L149.3,135.1L149.3,135.1z M183.6,199.2c9.7,2.9,20.1,2.9,29.8,0l-14.9-32.4L183.6,199.2z
	 M220.1,196.6c23.3-10.8,35-37,27.6-61.5L220.1,196.6z"/>
<path class="st2" d="M199,89.4c33.6,0,61,27.4,61,61s-27.4,61-61,61s-61-27.4-61-61S165.4,89.5,199,89.4L199,89.4z M172.4,106.5
	c-5.9,3.6-11,8.3-15.1,14l23.5,55.6l10.5-23.4h15.3l10.5,23.4l23.5-55.6c-4.1-5.6-9.2-10.4-15.1-14l-19,42.6h-15.3L172.4,106.5
	L172.4,106.5z M213.8,101.2c-9.6-2.9-19.9-2.9-29.5,0l14.8,33L213.8,101.2z M149.8,135.6c-7.4,24.5,4.4,50.8,27.6,61.5L149.8,135.6
	L149.8,135.6z M184.1,199.7c9.7,2.9,20.1,2.9,29.8,0L199,167.3L184.1,199.7z M220.6,197.1c23.3-10.8,35-37,27.6-61.5L220.6,197.1z"
	/>
</svg>
