<svg id="Capa_1" data-name="Capa 1" xmlns="http://www.w3.org/2000/svg" viewBox="0 0 400 300"><defs><style>.cls-1{fill:#6e6e6e;}</style></defs><path class="cls-1" d="M362.74,152.23A12.28,12.28,0,0,1,375.42,157l-21.94,5A12,12,0,0,1,362.74,152.23Zm12.8,18.26a12.08,12.08,0,0,1-7.33,4.94,12.26,12.26,0,0,1-12.73-4.81l22-5,3.58-.78,6.86-1.55a20.7,20.7,0,0,0-.58-4.37,22.47,22.47,0,0,0-26.92-16.5,22,22,0,0,0-16.89,26.13l.06.29A22.59,22.59,0,0,0,386,172.93Zm-51.79,14.18V153.28H317v-10.7h6.77V127.89h11.51v14.72h8.64v10.7h-8.64V184.7Zm-22,0h11.11V142.58H301.77Zm-1.45-56.86a6.81,6.81,0,0,1,6.79-6.82h.26a6.74,6.74,0,0,1,7,6.46v.36a6.79,6.79,0,0,1-6.68,6.91h-.31a6.88,6.88,0,0,1-7.05-6.7v-.21ZM297.9,142.7c-5.68.29-9,1.16-12.43,3.63v-3.75H274.35v42.09h11.11V164c0-6.49,1.56-10.18,12.43-10.55V142.7ZM236,164.29a11.79,11.79,0,1,0,0-1Zm-10.84,20.38V122.52l11.11-2.5v25.72a18.54,18.54,0,0,1,11.93-3.88c12.65,0,22.77,9.74,22.77,22s-10.1,22-22.77,22A18.55,18.55,0,0,1,236.25,182v2.74H225.14Zm-23.66,0V153.06H194.7V142.58h6.78V127.82l11.51-2.6v17.34h8.65V153H213v31.61Zm-20.36,0V162.18c0-8.14-4.43-9.91-8.86-9.91s-8.84,1.68-8.84,9.74v22.66H152.31V142.58h11.11v3.11a17.15,17.15,0,0,1,11.29-3.88c9.4,0,17.54,5.43,17.54,18.59v24.26Zm-57-32.44A12.27,12.27,0,0,1,136.83,157l-22,5A12,12,0,0,1,124.15,152.23Zm12.79,18.26a12,12,0,0,1-7.33,4.94,12.23,12.23,0,0,1-12.72-4.81l22-5,3.59-.78,6.85-1.55a21.45,21.45,0,0,0-.57-4.37,22.48,22.48,0,0,0-26.93-16.5,22,22,0,0,0-16.89,26.13l.06.29a22.6,22.6,0,0,0,42.37,4.07ZM78.82,184.67,61.57,142.58h12.1l10.94,28.55,11-28.55h12.11L90.48,184.67Zm-39-32.45A12.25,12.25,0,0,1,52.45,157l-21.94,5A12,12,0,0,1,39.78,152.22Zm12.79,18.26a12.08,12.08,0,0,1-7.33,4.94,12.25,12.25,0,0,1-12.73-4.8l22-5,3.58-.78L65,163.31a22.25,22.25,0,0,0-.56-4.37,22.49,22.49,0,0,0-26.94-16.5,22,22,0,0,0-16.88,26.15l.06.27a22.62,22.62,0,0,0,42.37,4L52.57,170.5Z"/></svg>